<?xml version="1.0" encoding="UTF-8"?>
<svg version="1.1" xmlns="http://www.w3.org/2000/svg" width="1024" height="1024">
<path d="M0 0 C5.09714861 0.00409469 10.19429678 0.0058785 15.29144669 0.00746536 C68.2601609 0.02607704 121.22784317 0.20959914 174.19563746 0.5190475 C179.61653724 0.55071009 185.03744159 0.58126565 190.45835298 0.61087006 C199.84432355 0.6621924 209.23024273 0.71888396 218.61614418 0.7815876 C221.73076138 0.80227067 224.84538007 0.8209869 227.96002007 0.83788109 C231.5599314 0.85754727 235.15978558 0.88169433 238.75964475 0.90927148 C240.6623995 0.92281622 242.56518406 0.93196088 244.46796608 0.94088936 C271.04514964 1.16560852 292.6236519 8.30404815 315.65115738 21.12877274 C315.65115738 21.78877274 315.65115738 22.44877274 315.65115738 23.12877274 C316.3549855 23.36338211 317.05881363 23.59799149 317.78396988 23.83971024 C326.4005765 27.71366144 333.88062614 35.78770516 339.65115738 43.12877274 C340.29238541 43.90438553 340.29238541 43.90438553 340.94656754 44.69566727 C351.91105759 57.99034336 359.44004681 72.72233177 364.65115738 89.12877274 C364.91042007 89.87296463 365.16968277 90.61715652 365.43680191 91.38389969 C370.5439242 106.09262133 371.05553828 122.45274371 372.00491714 137.8353157 C372.11211075 139.55838943 372.11211075 139.55838943 372.22146988 141.31627274 C372.28092789 142.34107742 372.34038589 143.36588211 372.40164566 144.42174149 C372.61855983 146.77511165 373.07788881 148.84825636 373.65115738 151.12877274 C373.31782405 152.7954394 372.98449071 154.46210607 372.65115738 156.12877274 C372.44990637 160.35504385 372.30489043 164.0899719 373.65115738 168.12877274 C373.33218415 170.46411246 372.99657589 172.79719781 372.65115738 175.12877274 C372.60863913 177.71175615 372.61031927 180.29576221 372.65115738 182.87877274 C372.71752329 189.35246558 372.41476655 195.69263833 371.65115738 202.12877274 C372.31115738 202.45877274 372.97115738 202.78877274 373.65115738 203.12877274 C372.99115738 203.12877274 372.33115738 203.12877274 371.65115738 203.12877274 C371.83678238 204.30439774 372.02240738 205.48002274 372.21365738 206.69127274 C372.73346734 210.74145868 372.40139278 214.12751726 371.65115738 218.12877274 C372.31115738 218.45877274 372.97115738 218.78877274 373.65115738 219.12877274 C372.99115738 219.12877274 372.33115738 219.12877274 371.65115738 219.12877274 C372.31115738 221.43877274 372.97115738 223.74877274 373.65115738 226.12877274 C373.32115738 226.45877274 372.99115738 226.78877274 372.65115738 227.12877274 C372.41587965 229.47864536 372.23729321 231.83433312 372.08865738 234.19127274 C372.00486832 235.4816243 371.92107925 236.77197586 371.83475113 238.10142899 C371.77416519 239.10045242 371.71357925 240.09947586 371.65115738 241.12877274 C372.31115738 241.45877274 372.97115738 241.78877274 373.65115738 242.12877274 C372.99115738 242.12877274 372.33115738 242.12877274 371.65115738 242.12877274 C371.83678238 243.40752274 372.02240738 244.68627274 372.21365738 246.00377274 C372.77615738 249.87877274 372.77615738 249.87877274 371.65115738 252.12877274 C372.31115738 252.45877274 372.97115738 252.78877274 373.65115738 253.12877274 C373.48615738 253.95377274 373.32115738 254.77877274 373.15115738 255.62877274 C372.76638316 258.32219226 372.61137701 260.62612558 372.65115738 263.31627274 C372.65115738 267.12877274 372.65115738 267.12877274 371.65115738 270.12877274 C372.31115738 270.45877274 372.97115738 270.78877274 373.65115738 271.12877274 C373.46553238 271.91252274 373.27990738 272.69627274 373.08865738 273.50377274 C372.39153472 276.09967049 372.39153472 276.09967049 373.65115738 278.12877274 C373.32115738 278.78877274 372.99115738 279.44877274 372.65115738 280.12877274 C372.57652062 282.68508161 372.55986128 285.21388391 372.58865738 287.76939774 C372.592444 288.52919937 372.59623062 289.28900101 372.60013199 290.07182693 C372.6164779 293.32541346 372.64447167 296.57887488 372.67166519 299.83238602 C372.68983382 302.20721727 372.70188106 304.58202752 372.71365738 306.95689774 C372.72195572 307.68523819 372.73025406 308.41357864 372.73880386 309.16399002 C372.75832797 313.26488534 372.45278371 317.10643902 371.65115738 321.12877274 C372.31115738 321.12877274 372.97115738 321.12877274 373.65115738 321.12877274 C373.98115738 322.77877274 374.31115738 324.42877274 374.65115738 326.12877274 C373.66115738 326.62377274 373.66115738 326.62377274 372.65115738 327.12877274 C372.98115738 328.44877274 373.31115738 329.76877274 373.65115738 331.12877274 C372.99115738 331.12877274 372.33115738 331.12877274 371.65115738 331.12877274 C371.76931045 335.36480737 371.89355169 339.600606 372.02347183 343.83629227 C372.06681968 345.27764894 372.1084949 346.71905691 372.14847183 348.16051102 C372.20617826 350.23081815 372.26987108 352.30086705 372.33475113 354.37096024 C372.37140884 355.61732254 372.40806656 356.86368484 372.44583511 358.1478157 C372.45405217 361.05514215 372.45405217 361.05514215 373.65115738 363.12877274 C372.99115738 363.12877274 372.33115738 363.12877274 371.65115738 363.12877274 C372.31115738 364.44877274 372.97115738 365.76877274 373.65115738 367.12877274 C372.99115738 367.12877274 372.33115738 367.12877274 371.65115738 367.12877274 C372.00178238 367.70627274 372.35240738 368.28377274 372.71365738 368.87877274 C373.82551901 371.54724065 373.43392479 372.43257387 372.65115738 375.12877274 C372.98115738 376.11877274 373.31115738 377.10877274 373.65115738 378.12877274 C372.99115738 378.12877274 372.33115738 378.12877274 371.65115738 378.12877274 C371.65115738 382.74877274 371.65115738 387.36877274 371.65115738 392.12877274 C372.31115738 392.12877274 372.97115738 392.12877274 373.65115738 392.12877274 C372.99115738 395.42877274 372.33115738 398.72877274 371.65115738 402.12877274 C372.31115738 402.45877274 372.97115738 402.78877274 373.65115738 403.12877274 C372.99115738 403.12877274 372.33115738 403.12877274 371.65115738 403.12877274 C371.6563942 404.25146561 371.66163101 405.37415848 371.66702652 406.53087234 C371.68542144 410.78216599 371.69671248 415.0334563 371.70608902 419.28477859 C371.71105179 421.10867788 371.71782418 422.93257334 371.72659683 424.75645828 C371.79749875 439.90027364 371.75456823 455.07590409 369.33865738 470.06627274 C369.20749527 470.89707352 369.07633316 471.7278743 368.94119644 472.58385086 C365.40111087 494.31948118 360.01917591 514.66540457 347.65115738 533.12877274 C347.0762355 534.0272493 346.50131363 534.92572586 345.90896988 535.85142899 C328.94166152 561.46475812 301.68870703 579.37854245 271.84646988 586.13658524 C256.33783596 589.27444864 240.52869887 590.24807142 224.74396133 590.69781876 C224.06049456 590.71814674 223.37702779 590.73847472 222.67284991 590.7594187 C207.78306889 591.19794876 192.8949679 591.27939358 177.99941611 591.27415645 C174.25430822 591.27394692 170.5092073 591.27952171 166.76410294 591.28421402 C159.47788487 591.29240166 152.19167489 591.29526325 144.90545259 591.2958264 C138.97111897 591.29630677 133.03678794 591.29838695 127.10245514 591.30152702 C110.17817559 591.31029669 93.2539023 591.31495156 76.32962047 591.31419655 C75.42365245 591.31415659 74.51768444 591.31411664 73.58426285 591.31407547 C72.6771564 591.31403459 71.77004995 591.31399371 70.83545543 591.31395159 C56.12699853 591.3135449 41.41856719 591.32312987 26.71011768 591.33721384 C11.51029115 591.35165069 -3.68952295 591.35848021 -18.88935649 591.35762006 C-27.38421584 591.35729088 -35.87904829 591.35991464 -44.37390137 591.37079811 C-51.60034565 591.37999965 -58.8267508 591.38200017 -66.05319847 591.37528869 C-69.72289769 591.37207293 -73.39252227 591.37178213 -77.0622139 591.38064194 C-139.31956406 591.52133446 -139.31956406 591.52133446 -168.34884262 580.12877274 C-169.19833481 579.81166336 -170.047827 579.49455399 -170.92306137 579.16783524 C-197.95500956 568.27510935 -220.38308497 543.1463758 -232.31905746 517.00377274 C-236.73674276 506.55532565 -240.31711618 495.53683404 -241.04024887 484.16392899 C-241.26260638 482.05269371 -241.26260638 482.05269371 -242.34103012 479.99986649 C-243.83070729 475.75601874 -243.78051218 471.59803421 -243.91134262 467.12877274 C-243.98530045 465.16261707 -244.05952645 463.19647148 -244.13399887 461.23033524 C-244.16896469 460.22518875 -244.20393051 459.22004227 -244.2399559 458.1844368 C-244.41438211 453.28955239 -244.62788363 448.39674373 -244.84884262 443.50377274 C-244.88437241 442.62205399 -244.91990219 441.74033524 -244.95650864 440.83189774 C-244.99316635 440.00947586 -245.02982407 439.18705399 -245.06759262 438.33971024 C-245.09788559 437.62089676 -245.12817856 436.90208328 -245.1593895 436.16148758 C-245.43278652 433.22810662 -246.03081129 430.76483539 -247.34884262 428.12877274 C-246.68884262 428.12877274 -246.02884262 428.12877274 -245.34884262 428.12877274 C-245.84384262 426.64377274 -245.84384262 426.64377274 -246.34884262 425.12877274 C-246.25669899 423.43749122 -246.09889868 421.74964623 -245.91134262 420.06627274 C-245.15679087 411.68024188 -245.29764483 403.30573227 -245.38619614 394.89220047 C-245.39449448 393.79077713 -245.40279282 392.68935379 -245.41134262 391.55455399 C-245.42294418 390.55851151 -245.43454575 389.56246902 -245.44649887 388.53624344 C-245.34884262 386.12877274 -245.34884262 386.12877274 -244.34884262 384.12877274 C-245.00884262 384.12877274 -245.66884262 384.12877274 -246.34884262 384.12877274 C-246.10653915 382.61742752 -246.10653915 382.61742752 -245.85934067 381.07555008 C-245.11717744 375.33771615 -245.16286307 369.62504198 -245.16353989 363.85045242 C-245.16135537 361.76593407 -245.14316022 359.68194771 -245.12423325 357.59752274 C-245.08233606 349.20803165 -245.08233606 349.20803165 -246.48556137 340.96471024 C-247.45544484 336.65509228 -246.92623559 336.01109868 -245.34884262 332.12877274 C-245.06889399 329.29566643 -245.06889399 329.29566643 -245.13766098 326.26866531 C-245.14103973 325.11429474 -245.14441849 323.95992416 -245.14789963 322.77057266 C-245.16135925 321.533974 -245.17481888 320.29737534 -245.18868637 319.02330399 C-245.19388794 317.74775146 -245.19908951 316.47219894 -245.2044487 315.15799332 C-245.21923403 311.77701576 -245.24213171 308.39631236 -245.26980209 305.01543045 C-245.30787506 300.24113652 -245.33542365 295.46681018 -245.35752487 290.69241714 C-245.36981934 288.15162343 -245.38745873 285.6108491 -245.41083908 283.07013321 C-245.41737 281.92521912 -245.42390091 280.78030502 -245.43062973 279.60069656 C-245.44300926 278.08443428 -245.44300926 278.08443428 -245.45563889 276.53754044 C-245.34884262 274.12877274 -245.34884262 274.12877274 -244.34884262 272.12877274 C-245.33884262 271.79877274 -246.32884262 271.46877274 -247.34884262 271.12877274 C-246.35884262 271.12877274 -245.36884262 271.12877274 -244.34884262 271.12877274 C-244.49073247 268.58683113 -244.63723418 266.0452928 -244.78634262 263.50377274 C-244.82565903 262.79092117 -244.86497543 262.07806961 -244.90548325 261.34361649 C-245.10149315 258.05668117 -245.38494512 254.91970856 -245.94649887 251.66783524 C-246.07927231 250.82994461 -246.21204575 249.99205399 -246.34884262 249.12877274 C-246.01884262 248.79877274 -245.68884262 248.46877274 -245.34884262 248.12877274 C-245.27314703 246.3164311 -245.26579444 244.50117182 -245.28634262 242.68736649 C-245.29472153 241.55274979 -245.30310043 240.41813309 -245.31173325 239.24913406 C-245.33010239 237.42611771 -245.33010239 237.42611771 -245.34884262 235.56627274 C-245.40799099 225.36788424 -245.22035045 215.29117652 -244.34884262 205.12877274 C-245.00884262 204.79877274 -245.66884262 204.46877274 -246.34884262 204.12877274 C-246.18775009 203.58551849 -246.02665756 203.04226425 -245.86068344 202.48254776 C-245.26869159 199.76018647 -245.19431269 197.25513964 -245.1593895 194.46837234 C-245.14267197 193.32875549 -245.12595444 192.18913864 -245.10873032 191.01498795 C-245.09515488 189.78281036 -245.08157944 188.55063278 -245.06759262 187.28111649 C-245.03944076 185.32213637 -245.01128459 183.36315631 -244.98289871 181.40417957 C-244.93430859 177.95826042 -244.89198697 174.51226357 -244.84884262 171.06627274 C-244.26160222 124.82281062 -244.26160222 124.82281062 -241.59884262 107.44127274 C-241.42401352 106.29134842 -241.24918442 105.1414241 -241.06905746 103.95665359 C-238.88513806 90.3363977 -235.08450498 78.24636139 -228.34884262 66.12877274 C-227.80228012 65.12072586 -227.25571762 64.11267899 -226.69259262 63.07408524 C-222.84008596 56.19210744 -218.43646592 50.14141845 -213.34884262 44.12877274 C-212.62954575 43.20838211 -212.62954575 43.20838211 -211.89571762 42.26939774 C-207.45929763 36.71112441 -201.99730401 32.39956062 -196.34884262 28.12877274 C-195.76312485 27.68452957 -195.17740707 27.24028641 -194.57394028 26.78258133 C-181.35611279 16.89954273 -167.52996798 10.42972132 -151.72384262 5.75377274 C-150.92631577 5.51489334 -150.12878891 5.27601395 -149.30709457 5.02989578 C-133.36027439 0.61186067 -116.84593231 0.72351239 -100.43478012 0.51158524 C-97.93098461 0.4737491 -95.42719029 0.43583374 -92.92339706 0.39784622 C-61.95081456 -0.04196941 -30.97501622 -0.02554656 0 0 Z " fill="#70CA5F" transform="translate(448.3488426208496,216.8712272644043)"/>
<path d="M0 0 C5.09714861 0.00409469 10.19429678 0.0058785 15.29144669 0.00746536 C68.2601609 0.02607704 121.22784317 0.20959914 174.19563746 0.5190475 C179.61653724 0.55071009 185.03744159 0.58126565 190.45835298 0.61087006 C199.84432355 0.6621924 209.23024273 0.71888396 218.61614418 0.7815876 C221.73076138 0.80227067 224.84538007 0.8209869 227.96002007 0.83788109 C231.5599314 0.85754727 235.15978558 0.88169433 238.75964475 0.90927148 C240.6623995 0.92281622 242.56518406 0.93196088 244.46796608 0.94088936 C271.04514964 1.16560852 292.6236519 8.30404815 315.65115738 21.12877274 C315.65115738 21.78877274 315.65115738 22.44877274 315.65115738 23.12877274 C316.3549855 23.36338211 317.05881363 23.59799149 317.78396988 23.83971024 C326.4005765 27.71366144 333.88062614 35.78770516 339.65115738 43.12877274 C340.29238541 43.90438553 340.29238541 43.90438553 340.94656754 44.69566727 C351.91105759 57.99034336 359.44004681 72.72233177 364.65115738 89.12877274 C364.91042007 89.87296463 365.16968277 90.61715652 365.43680191 91.38389969 C370.5439242 106.09262133 371.05553828 122.45274371 372.00491714 137.8353157 C372.11211075 139.55838943 372.11211075 139.55838943 372.22146988 141.31627274 C372.28092789 142.34107742 372.34038589 143.36588211 372.40164566 144.42174149 C372.61855983 146.77511165 373.07788881 148.84825636 373.65115738 151.12877274 C373.31782405 152.7954394 372.98449071 154.46210607 372.65115738 156.12877274 C372.44990637 160.35504385 372.30489043 164.0899719 373.65115738 168.12877274 C373.33218415 170.46411246 372.99657589 172.79719781 372.65115738 175.12877274 C372.60863913 177.71175615 372.61031927 180.29576221 372.65115738 182.87877274 C372.71752329 189.35246558 372.41476655 195.69263833 371.65115738 202.12877274 C372.31115738 202.45877274 372.97115738 202.78877274 373.65115738 203.12877274 C372.99115738 203.12877274 372.33115738 203.12877274 371.65115738 203.12877274 C371.83678238 204.30439774 372.02240738 205.48002274 372.21365738 206.69127274 C372.73346734 210.74145868 372.40139278 214.12751726 371.65115738 218.12877274 C372.31115738 218.45877274 372.97115738 218.78877274 373.65115738 219.12877274 C372.99115738 219.12877274 372.33115738 219.12877274 371.65115738 219.12877274 C372.31115738 221.43877274 372.97115738 223.74877274 373.65115738 226.12877274 C373.32115738 226.45877274 372.99115738 226.78877274 372.65115738 227.12877274 C372.41587965 229.47864536 372.23729321 231.83433312 372.08865738 234.19127274 C372.00486832 235.4816243 371.92107925 236.77197586 371.83475113 238.10142899 C371.77416519 239.10045242 371.71357925 240.09947586 371.65115738 241.12877274 C372.31115738 241.45877274 372.97115738 241.78877274 373.65115738 242.12877274 C372.99115738 242.12877274 372.33115738 242.12877274 371.65115738 242.12877274 C371.83678238 243.40752274 372.02240738 244.68627274 372.21365738 246.00377274 C372.77615738 249.87877274 372.77615738 249.87877274 371.65115738 252.12877274 C372.31115738 252.45877274 372.97115738 252.78877274 373.65115738 253.12877274 C373.48615738 253.95377274 373.32115738 254.77877274 373.15115738 255.62877274 C372.76638316 258.32219226 372.61137701 260.62612558 372.65115738 263.31627274 C372.65115738 267.12877274 372.65115738 267.12877274 371.65115738 270.12877274 C372.31115738 270.45877274 372.97115738 270.78877274 373.65115738 271.12877274 C373.46553238 271.91252274 373.27990738 272.69627274 373.08865738 273.50377274 C372.39153472 276.09967049 372.39153472 276.09967049 373.65115738 278.12877274 C373.32115738 278.78877274 372.99115738 279.44877274 372.65115738 280.12877274 C372.57652062 282.68508161 372.55986128 285.21388391 372.58865738 287.76939774 C372.592444 288.52919937 372.59623062 289.28900101 372.60013199 290.07182693 C372.6164779 293.32541346 372.64447167 296.57887488 372.67166519 299.83238602 C372.68983382 302.20721727 372.70188106 304.58202752 372.71365738 306.95689774 C372.72195572 307.68523819 372.73025406 308.41357864 372.73880386 309.16399002 C372.75832797 313.26488534 372.45278371 317.10643902 371.65115738 321.12877274 C372.31115738 321.12877274 372.97115738 321.12877274 373.65115738 321.12877274 C373.98115738 322.77877274 374.31115738 324.42877274 374.65115738 326.12877274 C373.66115738 326.62377274 373.66115738 326.62377274 372.65115738 327.12877274 C372.98115738 328.44877274 373.31115738 329.76877274 373.65115738 331.12877274 C372.99115738 331.12877274 372.33115738 331.12877274 371.65115738 331.12877274 C371.76931045 335.36480737 371.89355169 339.600606 372.02347183 343.83629227 C372.06681968 345.27764894 372.1084949 346.71905691 372.14847183 348.16051102 C372.20617826 350.23081815 372.26987108 352.30086705 372.33475113 354.37096024 C372.37140884 355.61732254 372.40806656 356.86368484 372.44583511 358.1478157 C372.45405217 361.05514215 372.45405217 361.05514215 373.65115738 363.12877274 C372.99115738 363.12877274 372.33115738 363.12877274 371.65115738 363.12877274 C372.31115738 364.44877274 372.97115738 365.76877274 373.65115738 367.12877274 C372.99115738 367.12877274 372.33115738 367.12877274 371.65115738 367.12877274 C372.00178238 367.70627274 372.35240738 368.28377274 372.71365738 368.87877274 C373.82551901 371.54724065 373.43392479 372.43257387 372.65115738 375.12877274 C372.98115738 376.11877274 373.31115738 377.10877274 373.65115738 378.12877274 C372.99115738 378.12877274 372.33115738 378.12877274 371.65115738 378.12877274 C371.65115738 382.74877274 371.65115738 387.36877274 371.65115738 392.12877274 C372.31115738 392.12877274 372.97115738 392.12877274 373.65115738 392.12877274 C372.99115738 395.42877274 372.33115738 398.72877274 371.65115738 402.12877274 C372.31115738 402.45877274 372.97115738 402.78877274 373.65115738 403.12877274 C372.99115738 403.12877274 372.33115738 403.12877274 371.65115738 403.12877274 C371.6563942 404.25146561 371.66163101 405.37415848 371.66702652 406.53087234 C371.68542144 410.78216599 371.69671248 415.0334563 371.70608902 419.28477859 C371.71105179 421.10867788 371.71782418 422.93257334 371.72659683 424.75645828 C371.79749875 439.90027364 371.75456823 455.07590409 369.33865738 470.06627274 C369.20749527 470.89707352 369.07633316 471.7278743 368.94119644 472.58385086 C365.40111087 494.31948118 360.01917591 514.66540457 347.65115738 533.12877274 C347.0762355 534.0272493 346.50131363 534.92572586 345.90896988 535.85142899 C328.94166152 561.46475812 301.68870703 579.37854245 271.84646988 586.13658524 C256.33783596 589.27444864 240.52869887 590.24807142 224.74396133 590.69781876 C224.06049456 590.71814674 223.37702779 590.73847472 222.67284991 590.7594187 C207.78306889 591.19794876 192.8949679 591.27939358 177.99941611 591.27415645 C174.25430822 591.27394692 170.5092073 591.27952171 166.76410294 591.28421402 C159.47788487 591.29240166 152.19167489 591.29526325 144.90545259 591.2958264 C138.97111897 591.29630677 133.03678794 591.29838695 127.10245514 591.30152702 C110.17817559 591.31029669 93.2539023 591.31495156 76.32962047 591.31419655 C75.42365245 591.31415659 74.51768444 591.31411664 73.58426285 591.31407547 C72.6771564 591.31403459 71.77004995 591.31399371 70.83545543 591.31395159 C56.12699853 591.3135449 41.41856719 591.32312987 26.71011768 591.33721384 C11.51029115 591.35165069 -3.68952295 591.35848021 -18.88935649 591.35762006 C-27.38421584 591.35729088 -35.87904829 591.35991464 -44.37390137 591.37079811 C-51.60034565 591.37999965 -58.8267508 591.38200017 -66.05319847 591.37528869 C-69.72289769 591.37207293 -73.39252227 591.37178213 -77.0622139 591.38064194 C-139.31956406 591.52133446 -139.31956406 591.52133446 -168.34884262 580.12877274 C-169.19833481 579.81166336 -170.047827 579.49455399 -170.92306137 579.16783524 C-197.95500956 568.27510935 -220.38308497 543.1463758 -232.31905746 517.00377274 C-236.73674276 506.55532565 -240.31711618 495.53683404 -241.04024887 484.16392899 C-241.26260638 482.05269371 -241.26260638 482.05269371 -242.34103012 479.99986649 C-243.83070729 475.75601874 -243.78051218 471.59803421 -243.91134262 467.12877274 C-243.98530045 465.16261707 -244.05952645 463.19647148 -244.13399887 461.23033524 C-244.16896469 460.22518875 -244.20393051 459.22004227 -244.2399559 458.1844368 C-244.41438211 453.28955239 -244.62788363 448.39674373 -244.84884262 443.50377274 C-244.88437241 442.62205399 -244.91990219 441.74033524 -244.95650864 440.83189774 C-244.99316635 440.00947586 -245.02982407 439.18705399 -245.06759262 438.33971024 C-245.09788559 437.62089676 -245.12817856 436.90208328 -245.1593895 436.16148758 C-245.43278652 433.22810662 -246.03081129 430.76483539 -247.34884262 428.12877274 C-246.68884262 428.12877274 -246.02884262 428.12877274 -245.34884262 428.12877274 C-245.84384262 426.64377274 -245.84384262 426.64377274 -246.34884262 425.12877274 C-246.25669899 423.43749122 -246.09889868 421.74964623 -245.91134262 420.06627274 C-245.15679087 411.68024188 -245.29764483 403.30573227 -245.38619614 394.89220047 C-245.39449448 393.79077713 -245.40279282 392.68935379 -245.41134262 391.55455399 C-245.42294418 390.55851151 -245.43454575 389.56246902 -245.44649887 388.53624344 C-245.34884262 386.12877274 -245.34884262 386.12877274 -244.34884262 384.12877274 C-245.00884262 384.12877274 -245.66884262 384.12877274 -246.34884262 384.12877274 C-246.10653915 382.61742752 -246.10653915 382.61742752 -245.85934067 381.07555008 C-245.11717744 375.33771615 -245.16286307 369.62504198 -245.16353989 363.85045242 C-245.16135537 361.76593407 -245.14316022 359.68194771 -245.12423325 357.59752274 C-245.08233606 349.20803165 -245.08233606 349.20803165 -246.48556137 340.96471024 C-247.45544484 336.65509228 -246.92623559 336.01109868 -245.34884262 332.12877274 C-245.06889399 329.29566643 -245.06889399 329.29566643 -245.13766098 326.26866531 C-245.14103973 325.11429474 -245.14441849 323.95992416 -245.14789963 322.77057266 C-245.16135925 321.533974 -245.17481888 320.29737534 -245.18868637 319.02330399 C-245.19388794 317.74775146 -245.19908951 316.47219894 -245.2044487 315.15799332 C-245.21923403 311.77701576 -245.24213171 308.39631236 -245.26980209 305.01543045 C-245.30787506 300.24113652 -245.33542365 295.46681018 -245.35752487 290.69241714 C-245.36981934 288.15162343 -245.38745873 285.6108491 -245.41083908 283.07013321 C-245.41737 281.92521912 -245.42390091 280.78030502 -245.43062973 279.60069656 C-245.44300926 278.08443428 -245.44300926 278.08443428 -245.45563889 276.53754044 C-245.34884262 274.12877274 -245.34884262 274.12877274 -244.34884262 272.12877274 C-245.33884262 271.79877274 -246.32884262 271.46877274 -247.34884262 271.12877274 C-246.35884262 271.12877274 -245.36884262 271.12877274 -244.34884262 271.12877274 C-244.49073247 268.58683113 -244.63723418 266.0452928 -244.78634262 263.50377274 C-244.82565903 262.79092117 -244.86497543 262.07806961 -244.90548325 261.34361649 C-245.10149315 258.05668117 -245.38494512 254.91970856 -245.94649887 251.66783524 C-246.07927231 250.82994461 -246.21204575 249.99205399 -246.34884262 249.12877274 C-246.01884262 248.79877274 -245.68884262 248.46877274 -245.34884262 248.12877274 C-245.27314703 246.3164311 -245.26579444 244.50117182 -245.28634262 242.68736649 C-245.29472153 241.55274979 -245.30310043 240.41813309 -245.31173325 239.24913406 C-245.33010239 237.42611771 -245.33010239 237.42611771 -245.34884262 235.56627274 C-245.40799099 225.36788424 -245.22035045 215.29117652 -244.34884262 205.12877274 C-245.00884262 204.79877274 -245.66884262 204.46877274 -246.34884262 204.12877274 C-246.18775009 203.58551849 -246.02665756 203.04226425 -245.86068344 202.48254776 C-245.26869159 199.76018647 -245.19431269 197.25513964 -245.1593895 194.46837234 C-245.14267197 193.32875549 -245.12595444 192.18913864 -245.10873032 191.01498795 C-245.09515488 189.78281036 -245.08157944 188.55063278 -245.06759262 187.28111649 C-245.03944076 185.32213637 -245.01128459 183.36315631 -244.98289871 181.40417957 C-244.93430859 177.95826042 -244.89198697 174.51226357 -244.84884262 171.06627274 C-244.26160222 124.82281062 -244.26160222 124.82281062 -241.59884262 107.44127274 C-241.42401352 106.29134842 -241.24918442 105.1414241 -241.06905746 103.95665359 C-238.88513806 90.3363977 -235.08450498 78.24636139 -228.34884262 66.12877274 C-227.80228012 65.12072586 -227.25571762 64.11267899 -226.69259262 63.07408524 C-222.84008596 56.19210744 -218.43646592 50.14141845 -213.34884262 44.12877274 C-212.62954575 43.20838211 -212.62954575 43.20838211 -211.89571762 42.26939774 C-207.45929763 36.71112441 -201.99730401 32.39956062 -196.34884262 28.12877274 C-195.76312485 27.68452957 -195.17740707 27.24028641 -194.57394028 26.78258133 C-181.35611279 16.89954273 -167.52996798 10.42972132 -151.72384262 5.75377274 C-150.92631577 5.51489334 -150.12878891 5.27601395 -149.30709457 5.02989578 C-133.36027439 0.61186067 -116.84593231 0.72351239 -100.43478012 0.51158524 C-97.93098461 0.4737491 -95.42719029 0.43583374 -92.92339706 0.39784622 C-61.95081456 -0.04196941 -30.97501622 -0.02554656 0 0 Z M-171.77853012 120.13267899 C-176.71860893 126.4122319 -179.46743498 133.35568096 -179.4830637 141.30668354 C-179.48752154 142.35984951 -179.49197939 143.41301548 -179.49657232 144.49809557 C-179.49638795 145.65400727 -179.49620359 146.80991898 -179.49601364 148.00085831 C-179.49969033 149.2297476 -179.50336702 150.45863688 -179.50715512 151.72476524 C-179.51627533 155.13777984 -179.5208902 158.55074639 -179.52354443 161.9637686 C-179.52745068 165.64425059 -179.53702886 169.32471869 -179.54575729 173.0051918 C-179.56551349 181.89501245 -179.57558722 190.78483421 -179.58448508 199.67467132 C-179.5888697 203.86275631 -179.59423609 208.05084004 -179.59947395 212.23892403 C-179.61648602 226.16431192 -179.63097942 240.08969902 -179.63822269 254.01509571 C-179.64013254 257.62826476 -179.64205288 261.24143379 -179.64400864 264.85460281 C-179.64449238 265.75262105 -179.64497612 266.65063929 -179.64547452 267.57587021 C-179.65377194 282.11790864 -179.67910409 296.65986474 -179.71158931 311.20186723 C-179.74468119 326.13742253 -179.76267341 341.07293602 -179.76586694 356.00852817 C-179.76803015 364.39201554 -179.77675108 372.77538286 -179.80232811 381.15883446 C-179.82406427 388.29979204 -179.83207126 395.44060041 -179.82236133 402.58158732 C-179.81782492 406.22249861 -179.81966393 409.86310226 -179.83912277 413.5039711 C-179.86007572 417.45870785 -179.84974232 421.41302384 -179.83658981 425.36780167 C-179.84755906 426.50809832 -179.85852831 427.64839497 -179.86982995 428.82324606 C-179.77674364 440.44611106 -176.1164576 450.40825332 -168.34884262 459.12877274 C-156.53584874 470.08467242 -143.31758258 470.5767025 -127.98356247 470.51645279 C-126.2430756 470.52063174 -124.50259146 470.52611233 -122.76211232 470.5327726 C-118.00648258 470.54717149 -113.25102696 470.54299998 -108.49538791 470.53560579 C-103.356303 470.53086281 -98.21725514 470.54339373 -93.07818222 470.5536232 C-83.02227067 470.57079251 -72.96642165 470.57165534 -62.91049925 470.5664103 C-54.73770557 470.56236505 -46.56493033 470.56381636 -38.39213753 470.56915855 C-37.22793483 470.56990698 -36.06373213 470.5706554 -34.86425057 470.5714265 C-32.49906355 470.572958 -30.13387654 470.57449635 -27.76868954 470.57604147 C-5.60570319 470.58975893 16.55724782 470.58433338 38.72023336 470.57285625 C58.99568568 470.56291751 79.27104683 470.575877 99.54648509 470.59979045 C120.3741765 470.62416999 141.20182543 470.63379257 162.02953082 470.62713772 C173.71934303 470.62364388 185.40908507 470.62588886 197.09888649 470.64338875 C207.04639349 470.65809607 216.99378084 470.65876499 226.94128545 470.64131784 C232.0158515 470.63279475 237.09020368 470.63069049 242.16475868 470.64596939 C246.81130304 470.65978654 251.45744968 470.65509162 256.10397086 470.63573015 C257.783437 470.63196083 259.46293478 470.63491895 261.14237281 470.64534181 C273.41183126 470.72828419 273.41183126 470.72828419 284.65115738 466.12877274 C285.4374855 465.65955399 286.22381363 465.19033524 287.03396988 464.70689774 C296.24932058 457.68174249 302.65324589 449.75470799 304.65115738 438.12877274 C304.74213308 436.35923596 304.78538411 434.58685511 304.79096508 432.81499004 C304.79665632 431.75696633 304.80234756 430.69894261 304.80821127 429.60885757 C304.80998108 427.87454604 304.80998108 427.87454604 304.81178665 426.10519791 C304.81687447 424.87207621 304.82196229 423.63895451 304.82720429 422.36846548 C304.84018906 418.94824331 304.84868562 415.52806441 304.85517728 412.10782731 C304.86155816 409.17349913 304.87162681 406.2391883 304.88173794 403.30487096 C304.91502548 393.6390086 304.9365759 383.9731357 304.95493779 374.30723485 C304.95973521 371.78947338 304.96471823 369.27171234 304.96974301 366.75395131 C305.00071497 351.10963585 305.02739215 335.46531664 305.0441618 319.82097912 C305.04811111 316.19904893 305.05211413 312.5771188 305.05618668 308.95518875 C305.05769922 307.60491719 305.05769922 307.60491719 305.05924232 306.22736741 C305.07624319 291.65045736 305.1173479 277.07371724 305.16820966 262.49689012 C305.22003027 247.52175008 305.24910981 232.54669735 305.25635868 217.57146841 C305.26101512 209.16721374 305.27570541 200.76323745 305.31610298 192.35907173 C305.3504718 185.20055637 305.36431467 178.04236966 305.35167884 170.88377654 C305.34586799 167.23448334 305.34960284 163.58588462 305.37984848 159.93669701 C305.41244549 155.97126835 305.39800419 152.00676858 305.3794136 148.04123306 C305.39620853 146.90064043 305.41300346 145.76004779 305.43030733 144.58489174 C305.31180871 134.43305275 301.47597647 125.17221691 294.45975113 117.71861649 C281.96537059 106.73543532 268.36637942 105.67776421 252.44446182 105.74782181 C250.72118733 105.74435993 248.99791505 105.73959182 247.27464736 105.73364007 C242.56654842 105.72117349 237.85863307 105.72728058 233.15053368 105.73659873 C228.06255887 105.74340663 222.97461489 105.73289944 217.88664627 105.72465897 C207.93065905 105.71133858 197.97473979 105.71419166 188.01874994 105.72289689 C179.92653391 105.72967893 171.83433689 105.7305879 163.74211884 105.72732544 C162.58930631 105.72686574 161.43649378 105.72640604 160.24874754 105.72593241 C157.90667425 105.72497321 155.56460097 105.72400057 153.2225277 105.72301464 C131.27601792 105.7144659 109.32954578 105.72428718 87.38304217 105.74041574 C68.55800706 105.75382201 49.73302743 105.75148726 30.90799332 105.73765945 C9.03556646 105.72160068 -12.83682746 105.71528608 -34.70925939 105.72449625 C-37.04198479 105.72545187 -39.3747102 105.72639499 -41.70743561 105.72732544 C-42.85512262 105.72778827 -44.00280962 105.72825109 -45.18527503 105.72872794 C-53.26739986 105.73131667 -61.34950377 105.72694944 -69.43162537 105.71988678 C-79.2813736 105.71146845 -89.13105012 105.71375912 -98.98079015 105.72972901 C-104.00481362 105.73760664 -109.02871755 105.74071187 -114.0527401 105.73078156 C-118.65425313 105.72182396 -123.25553616 105.7267851 -127.85702841 105.74271421 C-129.51901469 105.74605744 -131.18102052 105.74437826 -132.84299417 105.73708685 C-148.61636842 105.67320922 -160.52035558 108.37705023 -171.77853012 120.13267899 Z " fill="#71CA5F" transform="translate(448.3488426208496,216.8712272644043)"/>
<path d="M0 0 C1.72012301 -0.00346018 3.4402438 -0.00822716 5.16035998 -0.01418173 C9.8691162 -0.02667211 14.57768933 -0.02053024 19.28644609 -0.01122308 C24.37176772 -0.00442479 29.45705825 -0.01491776 34.54237366 -0.02316284 C44.49796928 -0.0364946 54.453497 -0.03362473 64.40909527 -0.02492492 C72.50229542 -0.01814584 80.59547657 -0.01723263 88.68867874 -0.02049637 C90.41743784 -0.02118592 90.41743784 -0.02118592 92.18112136 -0.0218894 C94.52254625 -0.02284859 96.86397113 -0.02382123 99.20539601 -0.02480717 C121.15577269 -0.03335963 143.10611176 -0.02352957 165.05648227 -0.00740607 C183.88090489 0.0059934 202.70527199 0.00367178 221.5296936 -0.01016235 C243.39919531 -0.02622684 265.26866406 -0.03253192 287.13817084 -0.02332556 C289.47152495 -0.02236994 291.80487906 -0.02142682 294.13823318 -0.02049637 C295.28622874 -0.02003354 296.4342243 -0.01957072 297.61700761 -0.01909386 C305.69716775 -0.01650632 313.77730694 -0.02086997 321.85746384 -0.02793503 C331.70939922 -0.03636003 341.56126291 -0.03404898 351.41319011 -0.0180928 C356.43744744 -0.01022303 361.46158537 -0.00709638 366.48584175 -0.01704025 C371.09000627 -0.02601466 375.69394131 -0.02100919 380.29808517 -0.0051076 C381.95882094 -0.00177135 383.61957631 -0.00342766 385.28029935 -0.01073496 C400.54972579 -0.07273914 413.33069155 1.69296903 425.11367798 12.22860718 C433.36042231 20.90282854 435.79707269 30.45052795 435.66873169 42.13951111 C435.67512051 43.37917049 435.68150933 44.61882987 435.68809175 45.89605469 C435.70063744 49.30708687 435.69099199 52.71669935 435.67157698 56.12760818 C435.65606611 59.8175112 435.6695733 63.50732812 435.67932129 67.19723511 C435.69380752 74.41354753 435.681655 81.62957746 435.66020805 88.84586305 C435.63613136 97.25741257 435.63791649 105.66889828 435.64051396 114.08047461 C435.64419974 129.09271984 435.62341602 144.10483245 435.58926392 159.11703491 C435.5561695 173.66980338 435.54200716 188.2224327 435.54824829 202.77523804 C435.55501879 218.64033236 435.5525338 234.5053685 435.53288889 250.37045425 C435.53132966 251.62990431 435.53132966 251.62990431 435.52973893 252.91479779 C435.52764811 254.60093623 435.52553714 256.28707465 435.52340576 257.97321304 C435.51652287 263.83064815 435.51583873 269.6880653 435.51728821 275.54550362 C435.51873083 282.6870623 435.50898394 289.82850786 435.48534185 296.97002906 C435.47351666 300.61079477 435.46633342 304.25140317 435.47217941 307.89218712 C435.47833824 311.84469369 435.46112595 315.79690656 435.44168091 319.74937439 C435.44700883 320.89169999 435.45233676 322.03402559 435.45782614 323.21096712 C435.35586662 335.24120102 432.35218558 344.80749445 423.93789673 353.58016968 C416.56492485 360.45737276 409.37650005 364.50233834 399.13673496 364.51237869 C398.07072742 364.51545764 398.07072742 364.51545764 396.98318437 364.51859879 C394.58359562 364.5242876 392.18406393 364.52280923 389.7844696 364.52139282 C388.05389112 364.5239754 386.32331324 364.52698826 384.59273618 364.53039622 C379.82261604 364.53848247 375.05251094 364.5402567 370.28238475 364.54099369 C365.14309653 364.5428415 360.00381617 364.55038759 354.86453247 364.55712891 C343.61839635 364.57072567 332.37226378 364.57673943 321.12612081 364.58113956 C314.10450556 364.58390049 307.0828917 364.58813765 300.06127739 364.59264374 C280.62347659 364.60483962 261.1856769 364.61513735 241.74787235 364.61851883 C239.88076201 364.61884818 239.88076201 364.61884818 237.97593227 364.61918418 C236.72818898 364.61940246 235.48044568 364.61962074 234.19489199 364.61984563 C231.66643719 364.6202891 229.13798239 364.62073566 226.60952759 364.6211853 C225.355323 364.62140673 224.10111841 364.62162816 222.80890762 364.6218563 C202.49612915 364.62580246 182.18338659 364.64324948 161.87062199 364.66654482 C141.01947882 364.69026461 120.16835366 364.70272102 99.31719679 364.70388675 C87.60871803 364.70480331 75.90028602 364.71055069 64.19182014 364.72870636 C54.21895177 364.74411599 44.24614458 364.74922281 34.27326656 364.74096826 C29.18626862 364.73706444 24.09939387 364.73797825 19.01241112 364.7520256 C14.35061563 364.76478081 9.68903571 364.76355272 5.02724045 364.75143489 C3.34542986 364.74948067 1.66360391 364.75254357 -0.01818513 364.76127926 C-14.59705352 364.83217927 -26.8276518 363.69884519 -37.95272827 353.38095093 C-46.75983814 343.49341494 -49.56278589 332.66320786 -49.46066284 319.66708374 C-49.4669028 318.43221348 -49.47314277 317.19734322 -49.47957182 315.92505264 C-49.49268717 312.52754995 -49.48807528 309.13094242 -49.47562695 305.73349571 C-49.46652855 302.057886 -49.48056977 298.38235114 -49.49154663 294.70675659 C-49.50928565 287.51823205 -49.50551256 280.32987504 -49.49389607 273.14134407 C-49.48484377 267.2964351 -49.4836455 261.45157291 -49.48799133 255.60665894 C-49.48860427 254.77316618 -49.4892172 253.93967343 -49.4898487 253.08092332 C-49.49112767 251.38742922 -49.49242452 249.69393514 -49.49373907 248.00044107 C-49.50513134 232.13951569 -49.49205244 216.27868295 -49.4705376 200.41777277 C-49.45266784 186.8234212 -49.45577233 173.22920628 -49.47421265 159.63485718 C-49.49564331 143.8287163 -49.50403283 128.02265652 -49.49176359 112.21650314 C-49.49048946 110.52941641 -49.48923198 108.84232967 -49.48799133 107.15524292 C-49.48737423 106.32527432 -49.48675713 105.49530571 -49.48612133 104.64018655 C-49.48267501 98.8057486 -49.48848125 92.97136232 -49.49790955 87.13693237 C-49.50915535 80.02173741 -49.50603546 72.90671885 -49.48478657 65.79154396 C-49.47431068 62.16477888 -49.47009463 58.53830737 -49.48338318 54.9115448 C-49.49759722 50.97247173 -49.48056741 47.03387404 -49.46066284 43.09481812 C-49.46958573 41.9592963 -49.47850862 40.82377449 -49.48770189 39.65384293 C-49.3764173 28.26928941 -46.32823637 19.79507691 -38.37460327 11.60751343 C-26.83330367 0.9969638 -15.06994772 -0.06611493 0 0 Z M41.04727173 37.38095093 C40.05727173 42.99095093 39.06727173 48.60095093 38.04727173 54.38095093 C36.94222408 57.49958424 36.03168439 59.94634043 34.48477173 62.75595093 C34.14107544 63.40749146 33.79737915 64.05903198 33.44326782 64.73031616 C25.20963976 79.63564239 12.88890017 88.10040811 -2.95272827 93.38095093 C-7.57272827 94.37095093 -12.19272827 95.36095093 -16.95272827 96.38095093 C-16.95272827 152.48095093 -16.95272827 208.58095093 -16.95272827 266.38095093 C-12.33272827 267.37095093 -7.71272827 268.36095093 -2.95272827 269.38095093 C14.27931341 274.97641274 26.40912906 286.18105551 34.57852173 302.18563843 C38.36683314 310.42723081 39.5351198 318.30803935 41.04727173 327.38095093 C141.36727173 327.38095093 241.68727173 327.38095093 345.04727173 327.38095093 C347.02727173 317.97595093 347.02727173 317.97595093 349.04727173 308.38095093 C355.86700278 291.8867177 367.79763799 278.84251744 384.04727173 271.38095093 C390.31727173 269.73095093 396.58727173 268.08095093 403.04727173 266.38095093 C403.04727173 211.27095093 403.04727173 156.16095093 403.04727173 99.38095093 C397.76727173 98.06095093 392.48727173 96.74095093 387.04727173 95.38095093 C370.04371042 87.95221055 357.39932686 76.64973159 350.04727173 59.38095093 C349.73145142 58.70677124 349.4156311 58.03259155 349.09024048 57.33798218 C346.2493958 50.77465137 346.11072353 44.82511352 345.04727173 37.38095093 C244.72727173 37.38095093 144.40727173 37.38095093 41.04727173 37.38095093 Z " fill="#066324" transform="translate(317.9527282714844,322.6190490722656)"/>
<path d="M0 0 C1.09183594 0.33386719 2.18367187 0.66773438 3.30859375 1.01171875 C5.93967021 1.89620828 8.45736183 2.88835374 11 4 C11.94488281 4.40605469 12.88976562 4.81210937 13.86328125 5.23046875 C42.27399013 18.38562189 61.92741507 44.42659754 72.77734375 73.05078125 C85.3155332 107.41219774 81.37839448 144.70214936 66.11279297 177.54272461 C62.28324884 185.3731296 57.58982868 192.29595087 52 199 C51.24074219 199.92296875 50.48148438 200.8459375 49.69921875 201.796875 C32.36350708 221.8847373 6.7569525 235.99046687 -19.78198242 238.84326172 C-52.75897597 241.17361173 -82.1532617 233.95340411 -107.48974609 212.31103516 C-116.06292294 204.86875264 -122.65462898 196.35566544 -129 187 C-129.72445313 185.93265625 -130.44890625 184.8653125 -131.1953125 183.765625 C-143.09829211 164.62750091 -148.58176553 141.10374508 -148.39111328 118.73876953 C-148.37500726 116.50100813 -148.39108071 114.26505165 -148.41015625 112.02734375 C-148.43117326 98.70859265 -146.15842228 86.272613 -141.875 73.625 C-141.5756958 72.74070312 -141.2763916 71.85640625 -140.96801758 70.9453125 C-131.43198573 43.83444944 -113.15970825 23.17137235 -89 8 C-87.75476563 7.19949219 -87.75476563 7.19949219 -86.484375 6.3828125 C-60.47893225 -8.09191507 -27.83200706 -8.82478273 0 0 Z " fill="#066324" transform="translate(546,390)"/>
<path d="M0 0 C7.38951706 0.01476427 14.62847434 0.22891319 21.97265625 1.1328125 C21.97265625 6.4128125 21.97265625 11.6928125 21.97265625 17.1328125 C23.70515625 17.5040625 25.43765625 17.8753125 27.22265625 18.2578125 C39.45726009 21.35244759 52.17736359 27.66114403 59.09765625 38.6328125 C59.71640625 39.7878125 60.33515625 40.9428125 60.97265625 42.1328125 C56.03512369 46.80345141 50.48084679 50.06828076 43.97265625 52.1328125 C40.42574488 51.86400776 38.85501634 50.28629449 36.41015625 47.8203125 C28.09358588 40.41765096 18.75983361 39.30023638 8.01171875 39.75390625 C1.00933258 40.27314409 -4.59655299 42.28013638 -9.58984375 47.3203125 C-12.57006804 51.27696356 -13.5398967 55.21410264 -13.02734375 60.1328125 C-8.97366448 69.29765259 1.10937088 72.16730885 9.8112793 75.58105469 C13.77241167 77.09046595 17.77665325 78.39448811 21.83203125 79.625 C22.48157272 79.82317322 23.1311142 80.02134644 23.80033875 80.2255249 C26.43725182 81.02563875 29.07511711 81.82042938 31.72216797 82.58642578 C44.07417177 86.18418478 54.34729011 90.94336131 60.8515625 102.54296875 C65.42067091 113.09808679 66.14855506 127.96177271 62.07421875 138.87109375 C55.19216803 153.00126172 46.60380834 159.95094614 31.97265625 165.1328125 C28.01265625 166.1228125 28.01265625 166.1228125 23.97265625 167.1328125 C22.98265625 172.7428125 21.99265625 178.3528125 20.97265625 184.1328125 C1.04957933 184.67127404 1.04957933 184.67127404 -6.02734375 181.1328125 C-6.44140625 177.97265625 -6.44140625 177.97265625 -6.65234375 174.0703125 C-6.72710937 172.77996094 -6.801875 171.48960937 -6.87890625 170.16015625 C-6.92789063 169.16113281 -6.976875 168.16210938 -7.02734375 167.1328125 C-7.754375 166.98585938 -8.48140625 166.83890625 -9.23046875 166.6875 C-22.15256099 163.80487942 -31.73820505 158.56991978 -41.02734375 149.1328125 C-41.68347656 148.47539063 -42.33960938 147.81796875 -43.015625 147.140625 C-44.71484375 145.3203125 -44.71484375 145.3203125 -47.02734375 142.1328125 C-46.73067957 138.51072969 -45.91760624 138.03783916 -43.0078125 135.51953125 C-41.75173725 134.60831299 -40.48701777 133.70891647 -39.21484375 132.8203125 C-38.58513672 132.35302734 -37.95542969 131.88574219 -37.30664062 131.40429688 C-32.61860551 128.07397182 -32.61860551 128.07397182 -29.9543457 128.33911133 C-27.34050346 129.41571099 -26.20453643 131.34135552 -24.4921875 133.51171875 C-18.96918434 139.62384225 -10.40702188 142.54649195 -2.39526367 143.41967773 C0.25483841 143.53245329 2.88306379 143.54288793 5.53515625 143.5078125 C6.41623047 143.51941406 7.29730469 143.53101563 8.20507812 143.54296875 C15.42691398 143.51099014 21.69257866 142.20068751 27.84765625 138.3203125 C31.38233766 134.68166987 33.12053192 131.1915842 33.41015625 126.1328125 C33.19619107 121.8041324 31.89437072 119.41083361 28.97265625 116.1328125 C20.36587866 109.12118106 10.16213285 106.02710852 -0.40234375 103.1953125 C-15.64596964 98.95174424 -30.97501001 94.10219005 -39.43359375 79.74609375 C-45.32750537 68.55794176 -46.77559363 58.04535512 -43.0625 45.80078125 C-38.3108355 33.55403839 -28.86528575 27.23022401 -17.58984375 21.515625 C-13.58847549 19.96246232 -10.28512454 19.4969648 -6.02734375 19.1328125 C-5.89457031 17.84503906 -5.76179688 16.55726563 -5.625 15.23046875 C-5.44684476 13.55205888 -5.26844683 11.87367477 -5.08984375 10.1953125 C-5.00283203 9.34517578 -4.91582031 8.49503906 -4.82617188 7.61914062 C-4.73916016 6.81025391 -4.65214844 6.00136719 -4.5625 5.16796875 C-4.48394775 4.419104 -4.40539551 3.67023926 -4.32446289 2.89868164 C-3.80736852 -0.17456698 -3.22418256 0.14144801 0 0 Z " fill="#71CA60" transform="translate(502.02734375,415.8671875)"/>
<path d="M0 0 C0.7425 -0.02449219 1.485 -0.04898437 2.25 -0.07421875 C8.30407114 -0.10630747 11.82427916 1.65585355 16.234375 5.9375 C22.4339231 13.75062912 22.5638575 20.71817996 21.625 30.375 C19.29437594 37.00090642 14.49261266 40.76913691 8.5 44.125 C2.7698392 46.36237298 -3.25209035 46.34417886 -9.09375 44.53125 C-15.93500571 41.4815336 -20.04831059 37.02837883 -23.375 30.375 C-24.75473799 15.11055688 -24.75473799 15.11055688 -20.6875 9.625 C-19.02734375 7.8515625 -19.02734375 7.8515625 -17.375 6.375 C-16.50875 5.59125 -15.6425 4.8075 -14.75 4 C-9.80107705 0.61389482 -5.99371075 0.01029847 0 0 Z " fill="#066223" transform="translate(675.375,484.625)"/>
<path d="M0 0 C0.33 0 0.66 0 1 0 C1.00059709 0.63208053 1.00119418 1.26416107 1.00180936 1.91539556 C1.03785212 39.53641808 1.09471688 77.15735712 1.17792095 114.77830591 C1.18793613 119.31468734 1.19778065 123.85106913 1.20751953 128.38745117 C1.2094609 129.29040781 1.21140228 130.19336445 1.21340248 131.12368342 C1.24426329 145.66588586 1.26135832 160.20807261 1.27319422 174.75030158 C1.28568895 189.71752905 1.31337503 204.68467527 1.35461307 219.65185136 C1.37730174 228.03948864 1.39330665 236.42702076 1.39188385 244.81469154 C-0.47128169 304.91664194 -0.47128169 304.91664194 12.625 362.8125 C13.14332397 364.08371704 13.14332397 364.08371704 13.67211914 365.38061523 C22.06697673 385.44137172 34.53521694 399.93292649 50 415 C45.0239142 415 42.44220304 411.34579867 39 408 C20.37322055 389.1811919 5.02624807 364.04917415 3.30859375 337.03515625 C3.08623624 334.92392097 3.08623624 334.92392097 2.0078125 332.87109375 C0.51813533 328.62724601 0.56833045 324.46926147 0.4375 320 C0.36354217 318.03384433 0.28931618 316.06769874 0.21484375 314.1015625 C0.17987793 313.09641602 0.14491211 312.09126953 0.10888672 311.05566406 C-0.06553949 306.16077966 -0.27904101 301.26797099 -0.5 296.375 C-0.53552979 295.49328125 -0.57105957 294.6115625 -0.60766602 293.703125 C-0.64432373 292.88070313 -0.68098145 292.05828125 -0.71875 291.2109375 C-0.74904297 290.49212402 -0.77933594 289.77331055 -0.81054688 289.03271484 C-1.0839439 286.09933389 -1.68196867 283.63606266 -3 281 C-2.34 281 -1.68 281 -1 281 C-1.495 279.515 -1.495 279.515 -2 278 C-1.90785637 276.30871849 -1.75005606 274.6208735 -1.5625 272.9375 C-0.80794825 264.55146915 -0.94880221 256.17695954 -1.03735352 247.76342773 C-1.04565186 246.66200439 -1.0539502 245.56058105 -1.0625 244.42578125 C-1.07410156 243.42973877 -1.08570313 242.43369629 -1.09765625 241.4074707 C-1 239 -1 239 0 237 C-0.66 237 -1.32 237 -2 237 C-1.75769653 235.48865479 -1.75769653 235.48865479 -1.51049805 233.94677734 C-0.76833482 228.20894341 -0.81402045 222.49626924 -0.81469727 216.72167969 C-0.81251274 214.63716134 -0.7943176 212.55317497 -0.77539062 210.46875 C-0.73349344 202.07925892 -0.73349344 202.07925892 -2.13671875 193.8359375 C-3.10660222 189.52631955 -2.57739297 188.88232595 -1 185 C-0.72005136 182.1668937 -0.72005136 182.1668937 -0.78881836 179.13989258 C-0.79219711 177.985522 -0.79557587 176.83115143 -0.79905701 175.64179993 C-0.81251663 174.40520126 -0.82597626 173.1686026 -0.83984375 171.89453125 C-0.84504532 170.61897873 -0.85024689 169.34342621 -0.85560608 168.02922058 C-0.87039141 164.64824302 -0.89328908 161.26753962 -0.92095947 157.88665771 C-0.95903244 153.11236378 -0.98658103 148.33803745 -1.00868225 143.56364441 C-1.02097672 141.02285069 -1.03861611 138.48207636 -1.06199646 135.94136047 C-1.06852737 134.79644638 -1.07505829 133.65153229 -1.08178711 132.47192383 C-1.09004013 131.46108231 -1.09829315 130.45024078 -1.10679626 129.4087677 C-1 127 -1 127 0 125 C-0.99 124.67 -1.98 124.34 -3 124 C-2.01 124 -1.02 124 0 124 C-0.14188985 121.45805839 -0.28839155 118.91652007 -0.4375 116.375 C-0.47681641 115.66214844 -0.51613281 114.94929688 -0.55664062 114.21484375 C-0.75265053 110.92790844 -1.0361025 107.79093583 -1.59765625 104.5390625 C-1.73042969 103.70117188 -1.86320313 102.86328125 -2 102 C-1.505 101.505 -1.505 101.505 -1 101 C-0.92430441 99.18765836 -0.91695182 97.37239909 -0.9375 95.55859375 C-0.94587891 94.42397705 -0.95425781 93.28936035 -0.96289062 92.12036133 C-0.97513672 90.90501709 -0.98738281 89.68967285 -1 88.4375 C-1.05914837 78.2391115 -0.87150783 68.16240378 0 58 C-0.66 57.67 -1.32 57.34 -2 57 C-1.83923477 56.4497113 -1.67846954 55.89942261 -1.51283264 55.3324585 C-0.94031116 52.72852401 -0.83911218 50.34673078 -0.79467773 47.68066406 C-0.77473251 46.61986633 -0.75478729 45.5590686 -0.73423767 44.46612549 C-0.71752518 43.32746033 -0.70081268 42.18879517 -0.68359375 41.015625 C-0.66281265 39.84489441 -0.64203156 38.67416382 -0.62062073 37.46795654 C-0.55524372 33.72869731 -0.49629509 29.98936795 -0.4375 26.25 C-0.39430353 23.7148365 -0.35068888 21.17968009 -0.30664062 18.64453125 C-0.19957441 12.4297616 -0.0977859 6.21492222 0 0 Z " fill="#F9F7F7" transform="translate(204,364)"/>
<path d="M0 0 C100.32 0 200.64 0 304 0 C304 3.63 304 7.26 304 11 C302 7 302 7 302 2 C203 2 104 2 2 2 C1.67 4.97 1.34 7.94 1 11 C0.67 11 0.34 11 0 11 C0 7.37 0 3.74 0 0 Z " fill="#68C25B" transform="translate(359,360)"/>
<path d="M0 0 C0.33 0 0.66 0 1 0 C1.16781295 2.60409745 1.33429651 5.2082682 1.5 7.8125 C1.54769531 8.55048828 1.59539063 9.28847656 1.64453125 10.04882812 C1.89852807 14.05834932 2.01142767 18.01468118 1.96484375 22.03125 C1.95582031 23.1759375 1.94679688 24.320625 1.9375 25.5 C1.92589844 26.6446875 1.91429687 27.789375 1.90234375 28.96875 C1.85712699 32.04724161 1.85712699 32.04724161 3 35 C2.68102677 37.33533973 2.34541851 39.66842508 2 42 C1.95748175 44.58298341 1.95916189 47.16698948 2 49.75 C2.06636591 56.22369284 1.76360917 62.56386559 1 69 C1.66 69.33 2.32 69.66 3 70 C2.34 70 1.68 70 1 70 C1.185625 71.175625 1.37125 72.35125 1.5625 73.5625 C2.08230996 77.61268594 1.7502354 80.99874453 1 85 C1.66 85.33 2.32 85.66 3 86 C2.34 86 1.68 86 1 86 C1.99 89.465 1.99 89.465 3 93 C2.505 93.495 2.505 93.495 2 94 C1.76472227 96.34987262 1.58613583 98.70556039 1.4375 101.0625 C1.35371094 102.35285156 1.26992188 103.64320313 1.18359375 104.97265625 C1.12300781 105.97167969 1.06242188 106.97070312 1 108 C1.66 108.33 2.32 108.66 3 109 C2.34 109 1.68 109 1 109 C1.2784375 110.918125 1.2784375 110.918125 1.5625 112.875 C2.125 116.75 2.125 116.75 1 119 C1.66 119.33 2.32 119.66 3 120 C2.835 120.825 2.67 121.65 2.5 122.5 C2.11522578 125.19341953 1.96021964 127.49735284 2 130.1875 C2 134 2 134 1 137 C1.66 137.33 2.32 137.66 3 138 C2.7215625 139.175625 2.7215625 139.175625 2.4375 140.375 C1.74037734 142.97089775 1.74037734 142.97089775 3 145 C2.505 145.99 2.505 145.99 2 147 C1.92536324 149.55630888 1.9087039 152.08511117 1.9375 154.640625 C1.94128662 155.40042664 1.94507324 156.16022827 1.94897461 156.9430542 C1.96532052 160.19664072 1.99331429 163.45010215 2.02050781 166.70361328 C2.03867644 169.07844453 2.05072368 171.45325478 2.0625 173.828125 C2.07079834 174.55646545 2.07909668 175.28480591 2.08764648 176.03521729 C2.10717059 180.1361126 1.80162634 183.97766628 1 188 C1.66 188 2.32 188 3 188 C3.495 190.475 3.495 190.475 4 193 C3.34 193.33 2.68 193.66 2 194 C2.33 195.32 2.66 196.64 3 198 C2.34 198 1.68 198 1 198 C1.11815307 202.23603463 1.24239432 206.47183326 1.37231445 210.70751953 C1.41566231 212.1488762 1.45733752 213.59028418 1.49731445 215.03173828 C1.55502088 217.10204541 1.61871371 219.17209432 1.68359375 221.2421875 C1.72025146 222.4885498 1.75690918 223.73491211 1.79467773 225.01904297 C1.80289479 227.92636942 1.80289479 227.92636942 3 230 C2.34 230 1.68 230 1 230 C1.66 231.32 2.32 232.64 3 234 C2.34 234 1.68 234 1 234 C1.350625 234.5775 1.70125 235.155 2.0625 235.75 C3.17436163 238.41846792 2.78276741 239.30380114 2 242 C2.33 242.99 2.66 243.98 3 245 C2.34 245 1.68 245 1 245 C1 249.62 1 254.24 1 259 C1.66 259 2.32 259 3 259 C2.34 262.3 1.68 265.6 1 269 C1.66 269.33 2.32 269.66 3 270 C2.34 270 1.68 270 1 270 C1.00523682 271.1331665 1.01047363 272.26633301 1.01586914 273.43383789 C1.03421796 277.71117334 1.0455391 281.98850544 1.05493164 286.26586914 C1.05990455 288.10344023 1.06668525 289.94100749 1.07543945 291.77856445 C1.12703773 302.90254543 0.94346296 313.91138512 0 325 C-0.33 325 -0.66 325 -1 325 C-0.67 217.75 -0.34 110.5 0 0 Z " fill="#F7F7F2" transform="translate(819,350)"/>
<path d="M0 0 C3.63168088 0.02173402 7.2633757 0.0402629 10.89507341 0.05893177 C19.45348952 0.10311192 28.01185536 0.15335833 36.57021523 0.20727134 C45.38873107 0.26269237 54.20725413 0.30656275 63.0258584 0.3451224 C70.62800607 0.37882779 78.2300873 0.42012878 85.83216238 0.4674477 C90.36030292 0.4955239 94.8884102 0.52059508 99.416605 0.53810668 C103.65873979 0.55479553 107.90071152 0.58093242 112.14274597 0.61441779 C113.69879324 0.62509659 115.25486788 0.63239492 116.81094742 0.63608336 C118.93250292 0.64163926 121.05362065 0.6593368 123.17507362 0.68012595 C124.95572842 0.69037032 124.95572842 0.69037032 126.77235603 0.70082164 C129.6668138 0.95490522 131.34111787 1.45235316 133.78554726 2.96532798 C110.02893696 2.98868402 86.27232839 3.00632047 62.51570892 3.01714015 C51.48520842 3.02229735 40.45471505 3.0293291 29.42421913 3.04076743 C19.81051571 3.05073184 10.19681746 3.0571856 0.58310902 3.05941647 C-4.50767333 3.06072058 -9.5984409 3.06378758 -14.68921852 3.07105803 C-19.48093202 3.07784593 -24.27262465 3.07993928 -29.0643425 3.07843566 C-30.82273599 3.07871074 -32.58113017 3.08069943 -34.3395195 3.08453345 C-36.74155124 3.08951392 -39.14350436 3.08831018 -41.54553795 3.08558249 C-42.58738768 3.08995176 -42.58738768 3.08995176 -43.65028489 3.09440929 C-47.60722535 3.08227752 -51.33140196 2.72398477 -55.21445274 1.96532798 C-55.21445274 1.63532798 -55.21445274 1.30532798 -55.21445274 0.96532798 C-36.82578778 -0.36763442 -18.42241745 -0.1129401 0 0 Z " fill="#60C44E" transform="translate(573.2144527435303,217.03467202186584)"/>
<path d="M0 0 C1.65 0 3.3 0 5 0 C5 55.11 5 110.22 5 167 C2.69 167 0.38 167 -2 167 C-0.02 166.01 -0.02 166.01 2 165 C2.33 110.88 2.66 56.76 3 1 C2.01 0.67 1.02 0.34 0 0 Z " fill="#68C25A" transform="translate(716,422)"/>
<path d="M0 0 C1.61874339 0.00384284 3.23748733 0.00745421 4.85623169 0.01086426 C30.12180145 0.08007235 55.38727938 0.32476202 80.65197587 0.53913116 C87.93436921 0.60086432 95.21677755 0.66073809 102.49918723 0.72050762 C117.41353731 0.84295445 132.32786845 0.9675749 147.2421875 1.09375 C143.54383283 3.55931978 141.72876365 3.34065308 137.31367493 3.33425903 C136.25014818 3.33682231 136.25014818 3.33682231 135.16513604 3.33943737 C132.78357265 3.342738 130.40228949 3.33171929 128.02075195 3.32080078 C126.31589769 3.32023679 124.61104294 3.32055299 122.90618896 3.32168579 C118.27217453 3.32226078 113.63826314 3.31048286 109.0042727 3.29653788 C104.16359492 3.28405484 99.3229149 3.28286194 94.48222351 3.28048706 C85.31310664 3.27426515 76.14403734 3.25784471 66.97494143 3.23778808 C56.53735039 3.2154512 46.0997571 3.20444122 35.66214812 3.19439721 C14.18880134 3.1734791 -7.28450259 3.13828931 -28.7578125 3.09375 C-28.7578125 2.43375 -28.7578125 1.77375 -28.7578125 1.09375 C-19.15859989 0.19051746 -9.63242452 -0.0444055 0 0 Z " fill="#77CB65" transform="translate(492.7578125,804.90625)"/>
<path d="M0 0 C0.33 0 0.66 0 1 0 C1.10022461 0.84071045 1.20044922 1.6814209 1.30371094 2.54760742 C1.68941976 5.7340783 2.08592758 8.91898676 2.48925781 12.10327148 C2.66010953 13.46896537 2.8269262 14.8351715 2.98925781 16.2019043 C4.09324627 25.46654818 5.88684054 34.16631581 9 43 C9.27473145 43.77980225 9.54946289 44.55960449 9.83251953 45.36303711 C17.99312185 67.51213873 31.24483405 83.67025819 48 100 C43.0239142 100 40.44220304 96.34579867 37 93 C18.37322055 74.1811919 3.02624807 49.04917415 1.30859375 22.03515625 C1.08194274 19.89969047 1.08194274 19.89969047 -0.05078125 17.734375 C-1.30109914 14.13263622 -0.9812467 10.91027805 -0.625 7.1875 C-0.56828125 6.49462891 -0.5115625 5.80175781 -0.453125 5.08789062 C-0.31269396 3.39101554 -0.15780593 1.69534752 0 0 Z " fill="#F0F5ED" transform="translate(206,679)"/>
<path d="M0 0 C-0.33 0.66 -0.66 1.32 -1 2 C-24.1 2 -47.2 2 -71 2 C-71.33 1.34 -71.66 0.68 -72 0 C-64.80009033 -0.17077811 -57.59998762 -0.3301353 -50.3996582 -0.48217773 C-47.95884705 -0.53499108 -45.51808754 -0.59025842 -43.07739258 -0.64819336 C-28.66139373 -0.98854234 -14.3868185 -1.05829247 0 0 Z " fill="#64C652" transform="translate(517,218)"/>
<path d="M0 0 C0 0.33 0 0.66 0 1 C-4.3008501 1.14539828 -8.60179077 1.28764506 -12.90283203 1.42724609 C-14.35923931 1.47492895 -15.81562095 1.52340289 -17.27197266 1.57275391 C-26.85329025 1.89675982 -36.41196342 2.06825575 -46 2 C-46 1.34 -46 0.68 -46 0 C-30.74420994 -1.91982976 -15.2856794 -1.18068696 0 0 Z " fill="#89D279" transform="translate(688,806)"/>
<path d="M0 0 C-0.99 0.495 -0.99 0.495 -2 1 C-2.33 1.66 -2.66 2.32 -3 3 C-12.57 3 -22.14 3 -32 3 C-32 2.34 -32 1.68 -32 1 C-21.31563078 -0.07419152 -10.72655709 -0.10194194 0 0 Z " fill="#83D074" transform="translate(496,805)"/>
<path d="M0 0 C1.58657838 2.37986757 2.6083047 4.26717478 3.65625 6.87109375 C3.95660156 7.61037109 4.25695312 8.34964844 4.56640625 9.11132812 C4.87449219 9.87896484 5.18257812 10.64660156 5.5 11.4375 C6.11317171 12.95760143 6.72771248 14.47715146 7.34375 15.99609375 C7.61380859 16.66825928 7.88386719 17.3404248 8.16210938 18.03295898 C8.98831622 20.05243283 8.98831622 20.05243283 10.12695312 22.10961914 C11.22091654 24.47834361 10.85938217 25.59372991 10 28 C-1.33876464 5.89577904 -1.33876464 5.89577904 -0.59375 1.7265625 C-0.3978125 1.15679688 -0.201875 0.58703125 0 0 Z " fill="#F2F6EF" transform="translate(213,719)"/>
<path d="M0 0 C3.20718282 1.60359141 3.416166 4.45129559 4.5625 7.75 C4.99691406 8.98234375 5.43132812 10.2146875 5.87890625 11.484375 C6.78798184 14.33513467 7.5000155 17.05627102 8 20 C5.60872136 17.01966738 3.91355788 14.02905475 2.3125 10.5625 C1.87550781 9.63566406 1.43851562 8.70882812 0.98828125 7.75390625 C-0.01511167 4.9578904 -0.19756379 2.94209864 0 0 Z " fill="#76D163" transform="translate(403,548)"/>
<path d="M0 0 C4.78569405 0.42226712 7.79660654 2.5791438 11 6 C12.93039768 8.53272126 14.76232287 11.05666831 16 14 C15.67 14.99 15.34 15.98 15 17 C14.64808594 16.41992188 14.29617188 15.83984375 13.93359375 15.2421875 C10.51990103 9.84088779 7.00126452 5.93140639 2 2 C1.34 1.34 0.68 0.68 0 0 Z " fill="#7BD365" transform="translate(547,505)"/>
<path d="M0 0 C0.66 0.33 1.32 0.66 2 1 C0.61559342 2.63474589 -0.78303245 4.25745662 -2.1875 5.875 C-2.96480469 6.77992188 -3.74210937 7.68484375 -4.54296875 8.6171875 C-6.99573203 10.99586095 -8.77053123 12.00190486 -12 13 C-8.19524578 8.43969176 -4.25030379 4.14910608 0 0 Z " fill="#02561C" transform="translate(439,411)"/>
<path d="M0 0 C0.33 0 0.66 0 1 0 C1.66 6.27 2.32 12.54 3 19 C2.01 18.67 1.02 18.34 0 18 C-1.23180249 11.84098757 -0.73030908 6.21324498 0 0 Z " fill="#E1EFDB" transform="translate(206,679)"/>
<path d="M0 0 C0 3 0 3 -1.390625 4.71875 C-2.00421875 5.3065625 -2.6178125 5.894375 -3.25 6.5 C-4.20326172 7.41458984 -4.20326172 7.41458984 -5.17578125 8.34765625 C-7.0352165 10.03189846 -8.92421132 11.5884637 -11 13 C-11.66 12.67 -12.32 12.34 -13 12 C-8.71 8.04 -4.42 4.08 0 0 Z " fill="#7FD768" transform="translate(593,594)"/>
<path d="M0 0 C5.46882606 0.400158 8.98892461 2.42311318 13 6 C13.99 7.485 13.99 7.485 15 9 C14.67 9.99 14.34 10.98 14 12 C13.57589844 11.45730469 13.15179687 10.91460937 12.71484375 10.35546875 C8.81040965 5.59291727 5.87293936 2.91769449 0 1 C0 0.67 0 0.34 0 0 Z " fill="#7ED667" transform="translate(681,484)"/>
<path d="M0 0 C-1.6188996 1.03048037 -3.24532489 2.04914678 -4.875 3.0625 C-5.77992188 3.63097656 -6.68484375 4.19945312 -7.6171875 4.78515625 C-8.40351562 5.18605469 -9.18984375 5.58695313 -10 6 C-10.66 5.67 -11.32 5.34 -12 5 C-11.67 4.34 -11.34 3.68 -11 3 C-9.68 3 -8.36 3 -7 3 C-6.67 2.01 -6.34 1.02 -6 0 C-3.50907189 -1.24546405 -2.58919267 -0.7767578 0 0 Z " fill="#B4E1AA" transform="translate(760,786)"/>
<path d="M0 0 C3.40312738 1.05875074 6.01353231 2.00902154 9 4 C9 4.66 9 5.32 9 6 C9.66 6.33 10.32 6.66 11 7 C10.01 7.33 9.02 7.66 8 8 C8 7.34 8 6.68 8 6 C7.236875 5.71125 6.47375 5.4225 5.6875 5.125 C3 4 3 4 0 2 C0 1.34 0 0.68 0 0 Z " fill="#92D484" transform="translate(755,234)"/>
<path d="M0 0 C3 1 3 1 4.203125 2.70703125 C4.54859375 3.40183594 4.8940625 4.09664062 5.25 4.8125 C5.60578125 5.49957031 5.9615625 6.18664062 6.328125 6.89453125 C7.11193544 9.35077442 6.84119973 10.60042386 6 13 C4.99491199 11.21118264 3.99607264 9.41885304 3 7.625 C2.1646875 6.12839844 2.1646875 6.12839844 1.3125 4.6015625 C0 2 0 2 0 0 Z " fill="#F9F9F7" transform="translate(217,734)"/>
<path d="M0 0 C2.77842595 2.77842595 3.94471208 4.78366581 4.125 8.75 C4.08375 9.4925 4.0425 10.235 4 11 C3.01 10.67 2.02 10.34 1 10 C-0.60725635 6.78548731 -0.05748185 3.56387464 0 0 Z " fill="#B4E0AB" transform="translate(808,295)"/>
<path d="M0 0 C0 3.21518097 -0.1621112 4.41024759 -2 7 C-5.125 8.25 -5.125 8.25 -8 9 C-7.04270084 7.87411986 -6.08412105 6.7493285 -5.125 5.625 C-4.59132813 4.99851562 -4.05765625 4.37203125 -3.5078125 3.7265625 C-2.38567993 2.44163349 -1.20628025 1.20628025 0 0 Z " fill="#7CD565" transform="translate(745,672)"/>
<path d="M0 0 C0.66 0.33 1.32 0.66 2 1 C2.35919668 2.66128463 2.68911632 4.32900023 3 6 C3.99083967 8.23408113 3.99083967 8.23408113 5 10 C-0.73529412 4.70588235 -0.73529412 4.70588235 -1 1 C-0.67 0.67 -0.34 0.34 0 0 Z " fill="#7FD868" transform="translate(456,554)"/>
<path d="M0 0 C3.0916909 2.52956528 3.90931332 5.22454612 5 9 C2 8 2 8 0.8125 6.1875 C0 4 0 4 0 0 Z " fill="#A7DB9B" transform="translate(800,279)"/>
<path d="M0 0 C0.66 0.66 1.32 1.32 2 2 C0.35 4.64 -1.3 7.28 -3 10 C-4 6 -4 6 -2.0625 2.75 C-1.381875 1.8425 -0.70125 0.935 0 0 Z " fill="#8AD27C" transform="translate(794,748)"/>
<path d="M0 0 C0 0.33 0 0.66 0 1 C-8.57142857 1.28571429 -8.57142857 1.28571429 -12 -1 C-7.47907032 -2.45606519 -4.48351204 -1.27032841 0 0 Z " fill="#7DD566" transform="translate(539,386)"/>
<path d="M0 0 C4.20626034 1.50223584 5.73900021 4.28550034 8 8 C3.79373966 6.49776416 2.26099979 3.71449966 0 0 Z " fill="#F3F7F1" transform="translate(230,756)"/>
<path d="M0 0 C1.485 0.99 1.485 0.99 3 2 C2.42655063 4.86724686 2.1385485 5.8614515 0 8 C-0.98120464 4.94736336 -0.98120464 3.05263664 0 0 Z " fill="#69C25C" transform="translate(358,368)"/>
<path d="" fill="#F6F5F1" transform="translate(0,0)"/>
<path d="" fill="#F5F4F1" transform="translate(0,0)"/>
<path d="" fill="#F9F9F4" transform="translate(0,0)"/>
<path d="" fill="#F8F7F3" transform="translate(0,0)"/>
<path d="" fill="#F6F8F2" transform="translate(0,0)"/>
<path d="" fill="#F6F5F0" transform="translate(0,0)"/>
<path d="" fill="#F6F6F1" transform="translate(0,0)"/>
<path d="" fill="#F3F7F1" transform="translate(0,0)"/>
<path d="" fill="#F9F7F1" transform="translate(0,0)"/>
<path d="" fill="#F8F6F3" transform="translate(0,0)"/>
</svg>
